<svg xmlns="http://www.w3.org/2000/svg">
  <symbol id="icon-done" viewBox="0 0 10 8">
    <path d="M1.5 4.5L4 7L8.5 1.5" stroke="currentColor" stroke-width="1.6" stroke-linecap="round" stroke-linejoin="round"/>
  </symbol>

  <symbol id="icon-send" viewBox="0 0 24 24">
    <path d="M24 0L0 13.5L9 16.5L24 0ZM9 16.5V24L13 19L9 16.5Z" fill="currentColor"/>
  </symbol>

  <symbol id="icon-mail" viewBox="0 0 18 24">
    <path d="M1.5 6L9 10.5L16.5 6M1.5 5.25H16.5C17.3284 5.25 18 5.92157 18 6.75V17.25C18 18.0784 17.3284 18.75 16.5 18.75H1.5C0.671573 18.75 0 18.0784 0 17.25V6.75C0 5.92157 0.671573 5.25 1.5 5.25Z" fill="currentColor"/>
  </symbol>

  <symbol id="icon-human" viewBox="0 0 18 24">
    <path d="M9 12.75C11.4853 12.75 13.5 10.7353 13.5 8.25C13.5 5.76472 11.4853 3.75 9 3.75C6.51472 3.75 4.5 5.76472 4.5 8.25C4.5 10.7353 6.51472 12.75 9 12.75ZM9 14.25C6.0175 14.25 0 15.7425 0 18.7125V20.25H18V18.7125C18 15.7425 11.9825 14.25 9 14.25Z" fill="currentColor"/>
  </symbol>
</svg>
