<svg xmlns="http://www.w3.org/2000/svg">
  <symbol id="icon-antenna" viewBox="0 0 64 64">
    <path d="M32 4.571v54.857M18.286 18.286A18.286 18.286 0 0132 13.714a18.286 18.286 0 0113.714 4.572M9.143 27.429A27.429 27.429 0 0132 18.286a27.429 27.429 0 0122.857 9.143" stroke="currentColor" stroke-width="2" stroke-linecap="round" stroke-linejoin="round" fill="none"/>
  </symbol>
  <symbol id="icon-clock" viewBox="0 0 64 64">
    <path d="M32 59.429c15.148 0 27.429-12.281 27.429-27.429S47.148 4.571 32 4.571 4.571 16.852 4.571 32 16.852 59.429 32 59.429zM32 13.714V32l9.143 9.143" stroke="currentColor" stroke-width="2" stroke-linecap="round" stroke-linejoin="round" fill="none"/>
  </symbol>
  <symbol id="icon-diagram" viewBox="0 0 64 64">
    <path d="M54.857 54.857H9.143V9.143M18.286 45.714l9.143-13.714 13.714 9.143 13.714-22.857" stroke="currentColor" stroke-width="2" stroke-linecap="round" stroke-linejoin="round" fill="none"/>
  </symbol>
  <symbol id="icon-astronaut" viewBox="0 0 64 64">
    <path d="M32 4.571a13.714 13.714 0 100 27.428 13.714 13.714 0 000-27.428zM13.714 41.143h36.572c2.526 0 4.571 2.045 4.571 4.571V59.43H9.143v-13.715c0-2.526 2.045-4.571 4.571-4.571z" stroke="currentColor" stroke-width="2" fill="none"/>
  </symbol>

  <symbol id="icon-instagram" viewBox="0 0 24 24">
    <path d="M12 2.163c3.204 0 3.584.012 4.85.07 3.252.148 4.771 1.691 4.919 4.919.058 1.265.069 1.645.069 4.849 0 3.205-.012 3.584-.069 4.849-.149 3.225-1.664 4.771-4.919 4.919-1.266.058-1.644.07-4.85.07-3.204 0-3.584-.012-4.849-.07-3.26-.149-4.771-1.699-4.919-4.92-.058-1.265-.07-1.644-.07-4.849 0-3.204.013-3.583.07-4.849.149-3.227 1.664-4.771 4.919-4.919 1.266-.057 1.645-.069 4.849-.069zM12 0C8.741 0 8.333.014 7.053.072 2.695.272.273 2.69.073 7.052.014 8.333 0 8.741 0 12c0 3.259.014 3.668.072 4.948.2 4.358 2.618 6.78 6.98 6.98 1.281.058 1.689.072 4.948.072 3.259 0 3.668-.014 4.948-.072 4.354-.2 6.782-2.618 6.979-6.98.059-1.28.073-1.689.073-4.948 0-3.259-.014-3.667-.072-4.947-.196-4.354-2.617-6.78-6.979-6.98C15.668.014 15.259 0 12 0zm0 5.838a6.162 6.162 0 100 12.324 6.162 6.162 0 000-12.324zM12 16a4 4 0 110-8 4 4 0 010 8zm6.406-11.845a1.44 1.44 0 100 2.881 1.44 1.44 0 000-2.881z" fill="currentColor"/>
  </symbol>
  <symbol id="icon-twitter" viewBox="0 0 24 24">
    <path d="M24 4.557a9.83 9.83 0 01-2.828.775 4.932 4.932 0 002.165-2.724 9.864 9.864 0 01-3.127 1.195 4.916 4.916 0 00-8.384 4.482A13.941 13.941 0 011.671 3.149a4.822 4.822 0 00-.666 2.475c0 1.71.87 3.213 2.188 4.096a4.904 4.904 0 01-2.228-.616v.06a4.923 4.923 0 003.946 4.84 4.996 4.996 0 01-2.212.085 4.936 4.936 0 004.604 3.417 9.867 9.867 0 01-6.102 2.105c-.39 0-.779-.023-1.17-.067a13.995 13.995 0 007.557 2.209c9.053 0 13.998-7.496 13.998-13.985 0-.21 0-.42-.015-.63A9.935 9.935 0 0024 4.557z" fill="currentColor"/>
  </symbol>
  <symbol id="icon-facebook" viewBox="0 0 24 24">
    <path d="M22.675 0H1.325C.593 0 0 .593 0 1.325v21.351C0 23.407.593 24 1.325 24H12.82v-9.294H9.692V11.08h3.128V8.413c0-3.1 1.893-4.788 4.659-4.788 1.325 0 2.463.099 2.795.143v3.24l-1.918.001c-1.504 0-1.795.715-1.795 1.763v2.313h3.587l-.467 3.625h-3.12V24h6.116c.73 0 1.323-.593 1.323-1.325V1.325C24 .593 23.407 0 22.675 0z" fill="currentColor"/>
  </symbol>
  <symbol id="icon-linkedin" viewBox="0 0 24 24">
    <path d="M19 0h-14c-2.761 0-5 2.239-5 5v14c0 2.761 2.239 5 5 5h14c2.762 0 5-2.239 5-5v-14c0-2.761-2.238-5-5-5zm-11 19h-3v-11h3v11zm-1.5-12.268c-.966 0-1.75-.79-1.75-1.764s.784-1.764 1.75-1.764 1.75.79 1.75 1.764-.783 1.764-1.75 1.764zm13.5 12.268h-3v-5.604c0-3.368-4-3.113-4 0v5.604h-3v-11h3v1.765c1.396-2.586 7-2.777 7 2.476v6.759z" fill="currentColor"/>
  </symbol>

  <symbol id="icon-phone" viewBox="0 0 18 24">
    <path d="M16.5 22.5a1.5 1.5 0 01-1.5-1.5v-1.5h-12V21a1.5 1.5 0 01-1.5 1.5.75.75 0 01-.75-.75V3.75a.75.75 0 01.75-.75 1.5 1.5 0 01 1.5 1.5V6h12V4.5a1.5 1.5 0 01 1.5-1.5.75.75 0 01.75.75V21.75a.75.75 0 01-.75.75z" fill="currentColor"/>
  </symbol>
  <symbol id="icon-close" viewBox="0 0 8 8">
    <path d="M8 .8L7.2 0 4 3.2.8 0 0 .8 3.2 4 0 7.2.8 8 4 4.8 7.2 8 8 7.2 4.8 4 8 .8z" fill="currentColor"/>
  </symbol>
  <symbol id="icon-burger" viewBox="0 0 32 32">
    <path d="M4 8h24v2.667H4V8zm0 6.667h24v2.666H4v-2.666zM4 21.333h24V24H4v-2.667z" fill="currentColor"/>
  </symbol>
</svg>
