<?xml version="1.0" encoding="UTF-8"?>
<svg xmlns="http://www.w3.org/2000/svg" style="display:none">

<defs>

<!-- BURGER -->
<symbol id="icon-menu" viewBox="0 0 24 24">
<path fill="currentColor"
d="M3 6h18v2H3zm0 5h18v2H3zm0 5h18v2H3z"/>
</symbol>

<symbol id="icon-burger" viewBox="0 0 24 24">
<path fill="currentColor"
d="M3 6h18v2H3zm0 5h18v2H3zm0 5h18v2H3z"/>
</symbol>

<!-- CLOSE -->
<symbol id="icon-close" viewBox="0 0 24 24">
<path d="M6 6L18 18M18 6L6 18"
stroke="currentColor"
stroke-width="2"
stroke-linecap="round"
fill="none"/>
</symbol>

<!-- SEND -->
<symbol id="icon-send" viewBox="0 0 24 24">
<path fill="currentColor"
d="M2 21L23 12 2 3v7l15 2-15 2z"/>
</symbol>

<!-- INSTAGRAM -->
<symbol id="icon-instagram" viewBox="0 0 24 24">
<path fill="currentColor"
d="M7 2h10a5 5 0 015 5v10a5 5 0 01-5 5H7a5 5 0 01-5-5V7a5 5 0 015-5zm0 2a3 3 0 00-3 3v10a3 3 0 003 3h10a3 3 0 003-3V7a3 3 0 00-3-3zm10 1a1 1 0 110 2 1 1 0 010-2zM12 7a5 5 0 110 10 5 5 0 010-10zm0 2a3 3 0 100 6 3 3 0 000-6z"/>
</symbol>

<!-- TWITTER -->
<symbol id="icon-twitter" viewBox="0 0 24 24">
<path fill="currentColor"
d="M22 5.8c-.7.3-1.4.5-2.2.6.8-.5 1.4-1.2 1.7-2.1-.7.5-1.6.8-2.5 1-1.4-1.5-3.8-1.6-5.3-.2-.8.7-1.2 1.7-1.2 2.8 0 .3 0 .7.1 1C8.7 8.7 5.5 7 3.3 4.4c-1 1.7-.5 3.9 1.1 5-.6 0-1.2-.2-1.7-.5 0 2 1.4 3.8 3.4 4.2-.6.2-1.2.2-1.8.1.6 1.8 2.3 3.1 4.2 3.1A8.5 8.5 0 012 18.1 12 12 0 008.5 20c7.8 0 12.1-6.5 12.1-12.1v-.6c.8-.6 1.5-1.3 2-2.1z"/>
</symbol>

<!-- FACEBOOK -->
<symbol id="icon-facebook" viewBox="0 0 24 24">
<path fill="currentColor"
d="M14 8V6c0-.8.2-1 1-1h2V2h-3c-3 0-5 2-5 5v1H7v4h2v10h4V12h3l1-4z"/>
</symbol>

<!-- LINKEDIN -->
<symbol id="icon-linkedin" viewBox="0 0 24 24">
<path fill="currentColor"
d="M4 9h4v11H4zM6 3a2 2 0 110 4 2 2 0 010-4zM10 9h4v2c.6-1.2 2-2 4-2 4 0 5 2.5 5 6V20h-4v-5c0-2 0-4-2.5-4S14 13 14 15v5h-4z"/>
</symbol>

<!-- PHONE -->
<symbol id="icon-phone" viewBox="0 0 24 24">
<path fill="currentColor"
d="M6 2h4l2 5-3 2c1.5 3 4 5.5 7 7l2-3 5 2v4c0 1-1 2-2 2C10 21 3 14 3 5c0-1 1-2 2-2z"/>
</symbol>

<!-- ANTENNA -->
<symbol id="icon-antenna" viewBox="0 0 24 24">
<path fill="currentColor"
d="M10 14h4v8h-4zm2-12a8 8 0 018 8h-2a6 6 0 00-12 0H4a8 8 0 018-8zm-4 8h8v2H8z"/>
</symbol>

<!-- CLOCK -->
<symbol id="icon-clock" viewBox="0 0 24 24">
<path fill="currentColor"
d="M12 2a10 10 0 1010 10A10 10 0 0012 2zm1 11h-5V7h2v4h3z"/>
</symbol>

<!-- DIAGRAM -->
<symbol id="icon-diagram" viewBox="0 0 24 24">
<path fill="currentColor"
d="M3 21h18v1H3zM6 10h3v10H6zm5-4h3v14h-3zm5 7h3v7h-3z"/>
</symbol>

<!-- ASTRONAUT -->
<symbol id="icon-astronaut" viewBox="0 0 24 24">
<path fill="currentColor"
d="M12 2a7 7 0 017 7v4a7 7 0 01-14 0V9a7 7 0 017-7zm0 4a3 3 0 100 6 3 3 0 000-6zm-4 13h8v3H8z"/>
</symbol>

</defs>
</svg>